<?xml version="1.0" standalone="no"?>
<!DOCTYPE svg PUBLIC "-//W3C//DTD SVG 20010904//EN"
 "http://www.w3.org/TR/2001/REC-SVG-20010904/DTD/svg10.dtd">
<svg version="1.0" xmlns="http://www.w3.org/2000/svg"
 width="468.000000pt" height="327.000000pt" viewBox="0 0 468.000000 327.000000"
 preserveAspectRatio="xMidYMid meet">

<g transform="translate(0.000000,327.000000) scale(0.100000,-0.100000)"
fill="#000000" stroke="none">
<path d="M840 2980 l0 -150 215 0 215 0 0 150 0 150 -215 0 -215 0 0 -150z"/>
<path d="M840 2530 l0 -150 215 0 215 0 0 150 0 150 -215 0 -215 0 0 -150z"/>
<path d="M2770 2530 l0 -130 215 0 216 0 -3 128 -3 127 -212 3 -213 2 0 -130z"/>
<path d="M2770 2155 l0 -125 215 0 215 0 0 125 0 125 -215 0 -215 0 0 -125z"/>
<path d="M840 2090 l0 -150 215 0 215 0 0 150 0 150 -215 0 -215 0 0 -150z"/>
<path d="M1480 1935 l0 -95 215 0 215 0 0 95 0 95 -215 0 -215 0 0 -95z"/>
<path d="M4050 1935 l0 -95 215 0 215 0 0 95 0 95 -215 0 -215 0 0 -95z"/>
<path d="M2770 1780 l0 -130 215 0 216 0 -3 128 -3 127 -212 3 -213 2 0 -130z"/>
<path d="M840 1640 l0 -150 215 0 215 0 0 150 0 150 -215 0 -215 0 0 -150z"/>
<path d="M1480 1655 l0 -95 215 0 215 0 0 95 0 95 -215 0 -215 0 0 -95z"/>
<path d="M4050 1655 l0 -95 215 0 215 0 0 95 0 95 -215 0 -215 0 0 -95z"/>
<path d="M2770 1405 l0 -125 215 0 215 0 0 125 0 125 -215 0 -215 0 0 -125z"/>
<path d="M1480 1375 l0 -95 215 0 215 0 0 95 0 95 -215 0 -215 0 0 -95z"/>
<path d="M4050 1375 l0 -95 215 0 215 0 0 95 0 95 -215 0 -215 0 0 -95z"/>
<path d="M200 1290 l0 -60 215 0 215 0 0 60 0 60 -215 0 -215 0 0 -60z"/>
<path d="M840 1190 l0 -150 215 0 215 0 0 150 0 150 -215 0 -215 0 0 -150z"/>
<path d="M1480 1095 l0 -95 215 0 215 0 0 95 0 95 -215 0 -215 0 0 -95z"/>
<path d="M4050 1095 l0 -95 215 0 215 0 0 95 0 95 -215 0 -215 0 0 -95z"/>
<path d="M200 1110 l0 -60 215 0 215 0 0 60 0 60 -215 0 -215 0 0 -60z"/>
<path d="M2770 1030 l0 -130 215 0 216 0 -3 128 -3 127 -212 3 -213 2 0 -130z"/>
<path d="M2120 1045 l0 -45 220 0 220 0 0 45 0 45 -220 0 -220 0 0 -45z"/>
<path d="M3410 1045 l0 -45 215 0 215 0 0 45 0 45 -215 0 -215 0 0 -45z"/>
<path d="M200 930 l0 -60 215 0 215 0 0 60 0 60 -215 0 -215 0 0 -60z"/>
<path d="M2120 905 l0 -45 220 0 220 0 0 45 0 45 -220 0 -220 0 0 -45z"/>
<path d="M3410 905 l0 -45 215 0 215 0 0 45 0 45 -215 0 -215 0 0 -45z"/>
<path d="M840 750 l0 -150 215 0 215 0 0 150 0 150 -215 0 -215 0 0 -150z"/>
<path d="M1480 810 l0 -90 215 0 215 0 0 90 0 90 -215 0 -215 0 0 -90z"/>
<path d="M4050 810 l0 -90 215 0 215 0 0 90 0 90 -215 0 -215 0 0 -90z"/>
<path d="M200 750 l0 -60 215 0 215 0 0 60 0 60 -215 0 -215 0 0 -60z"/>
<path d="M2120 765 l0 -45 220 0 220 0 0 45 0 45 -220 0 -220 0 0 -45z"/>
<path d="M3410 765 l0 -45 215 0 215 0 0 45 0 45 -215 0 -215 0 0 -45z"/>
<path d="M2770 655 l0 -125 215 0 215 0 0 125 0 125 -215 0 -215 0 0 -125z"/>
<path d="M2120 625 l0 -45 220 0 220 0 0 45 0 45 -220 0 -220 0 0 -45z"/>
<path d="M3410 625 l0 -45 215 0 215 0 0 45 0 45 -215 0 -215 0 0 -45z"/>
<path d="M200 570 l0 -60 215 0 215 0 0 60 0 60 -215 0 -215 0 0 -60z"/>
<path d="M1482 528 l3 -93 213 -3 212 -2 0 95 0 95 -215 0 -216 0 3 -92z"/>
<path d="M4050 525 l0 -95 215 0 215 0 0 95 0 95 -215 0 -215 0 0 -95z"/>
<path d="M2122 483 l3 -48 215 0 215 0 3 48 3 47 -221 0 -221 0 3 -47z"/>
<path d="M3410 480 l0 -50 215 0 215 0 0 50 0 50 -215 0 -215 0 0 -50z"/>
<path d="M200 390 l0 -60 215 0 215 0 0 60 0 60 -215 0 -215 0 0 -60z"/>
<path d="M840 300 l0 -150 215 0 215 0 0 150 0 150 -215 0 -215 0 0 -150z"/>
<path d="M2770 275 l0 -125 215 0 215 0 0 125 0 125 -215 0 -215 0 0 -125z"/>
<path d="M2122 343 l3 -48 215 0 215 0 3 48 3 47 -221 0 -221 0 3 -47z"/>
<path d="M3410 340 l0 -50 215 0 215 0 0 50 0 50 -215 0 -215 0 0 -50z"/>
<path d="M1480 245 l0 -95 215 0 215 0 0 95 0 95 -215 0 -215 0 0 -95z"/>
<path d="M4050 245 l0 -95 215 0 215 0 0 95 0 95 -215 0 -215 0 0 -95z"/>
<path d="M200 210 l0 -60 215 0 215 0 0 60 0 60 -215 0 -215 0 0 -60z"/>
<path d="M2124 236 c-3 -8 -4 -29 -2 -48 l3 -33 215 0 215 0 0 45 0 45 -213 3
c-176 2 -213 0 -218 -12z"/>
<path d="M3410 200 l0 -50 215 0 215 0 0 50 0 50 -215 0 -215 0 0 -50z"/>
</g>
</svg>
